<?xml version="1.0" encoding="utf-8"?>
<svg xmlns="http://www.w3.org/2000/svg" style="margin: auto; background: none; display: block; shape-rendering: auto;" width="280" height="250" preserveAspectRatio="xMidYMid">
<style type="text/css">
  text {
    text-anchor: middle; font-size: 77px; opacity: 0;
  }
</style>
<g style="transform-origin:140px 125px;transform:scale(1)">
<g transform="translate(140,125)">
  <g transform="translate(0,0)"><g class="path" style="opacity: 1; transform-origin: -66.875px -5.93628px; animation: 2.7027s linear -1.42703s infinite normal forwards running fade-6113e80d-c587-4c50-9c56-066ffc3040e0;"><path d="M7.24-13.71L7.24-13.71Q7.47-11.09 9.20-8.70L9.20-8.70L9.20-8.70Q10.93-6.31 13.98-4.81L13.98-4.81L13.98-4.81Q17.02-3.31 20.94-3.31L20.94-3.31L20.94-3.31Q26.87-3.31 30.84-5.97L30.84-5.97L30.84-5.97Q34.80-8.62 34.80-14.40L34.80-14.40L34.80-14.40Q34.80-17.79 32.88-20.06L32.88-20.06L32.88-20.06Q30.95-22.33 28.11-23.68L28.11-23.68L28.11-23.68Q25.26-25.02 20.33-26.80L20.33-26.80L20.33-26.80Q15.02-28.64 11.82-30.22L11.82-30.22L11.82-30.22Q8.62-31.80 6.43-34.50L6.43-34.50L6.43-34.50Q4.24-37.19 4.24-41.43L4.24-41.43L4.24-41.43Q4.24-44.81 6.16-47.86L6.16-47.86L6.16-47.86Q8.08-50.90 11.97-52.78L11.97-52.78L11.97-52.78Q15.86-54.67 21.56-54.67L21.56-54.67L21.56-54.67Q25.33-54.67 27.80-54.13L27.80-54.13L27.80-54.13Q30.26-53.59 32.80-52.36L32.80-52.36L31.49-48.28L31.49-48.28Q27.10-50.51 21.71-50.51L21.71-50.51L21.71-50.51Q15.79-50.51 12.24-48.05L12.24-48.05L12.24-48.05Q8.70-45.58 8.70-41.20L8.70-41.20L8.70-41.20Q8.70-38.42 10.47-36.54L10.47-36.54L10.47-36.54Q12.24-34.65 14.82-33.49L14.82-33.49L14.82-33.49Q17.40-32.34 22.02-30.72L22.02-30.72L22.02-30.72Q27.64-28.80 31.11-27.14L31.11-27.14L31.11-27.14Q34.57-25.49 37.00-22.45L37.00-22.45L37.00-22.45Q39.42-19.40 39.42-14.78L39.42-14.78L39.42-14.78Q39.42-7.70 34.92-3.43L34.92-3.43L34.92-3.43Q30.41 0.85 21.02 0.85L21.02 0.85L21.02 0.85Q15.32 0.85 11.28-1.27L11.28-1.27L11.28-1.27Q7.24-3.39 5.12-6.74L5.12-6.74L5.12-6.74Q3.00-10.09 2.85-13.71L2.85-13.71L7.24-13.71" fill="#1d5167" stroke="none" stroke-width="none" transform="translate(-88.010009765625,20.973720092773437)" style="fill: rgb(29, 81, 103);"></path></g><g class="path" style="opacity: 1; transform-origin: -34.645px -5.47628px; animation: 2.7027s linear -1.07027s infinite normal forwards running fade-6113e80d-c587-4c50-9c56-066ffc3040e0;"><path d="M54.75 1.00L54.75 1.00Q50.44-0.23 48.51-2.93L48.51-2.93L48.51-2.93Q46.59-5.62 46.59-10.16L46.59-10.16L46.59-53.90L50.90-53.90L50.90-38.58L60.14-38.58L58.29-34.50L50.90-34.50L50.90-10.16L50.90-10.16Q50.90-4.00 55.98-2.31L55.98-2.31L54.75 1.00" fill="#1d5167" stroke="none" stroke-width="none" transform="translate(-88.010009765625,20.973720092773437)" style="fill: rgb(67, 127, 121);"></path></g><g class="path" style="opacity: 1; transform-origin: -5.74001px 1.64872px; animation: 2.7027s linear -0.713514s infinite normal forwards running fade-6113e80d-c587-4c50-9c56-066ffc3040e0;"><path d="M96.63-14.17L96.63-14.17Q96.63-7.70 93.09-3.46L93.09-3.46L93.09-3.46Q89.55 0.77 82.39 0.77L82.39 0.77L82.39 0.77Q75.23 0.77 71.57-3.50L71.57-3.50L71.57-3.50Q67.91-7.78 67.91-14.17L67.91-14.17L67.91-24.33L67.91-24.33Q67.91-31.65 71.65-35.54L71.65-35.54L71.65-35.54Q75.38-39.42 82.39-39.42L82.39-39.42L82.39-39.42Q89.09-39.42 92.86-35.38L92.86-35.38L92.86-35.38Q96.63-31.34 96.63-24.33L96.63-24.33L96.63-14.17zM92.32-24.33L92.32-24.33Q92.32-30.11 89.67-32.80L89.67-32.80L89.67-32.80Q87.01-35.50 82.39-35.50L82.39-35.50L82.39-35.50Q77.62-35.50 74.92-32.80L74.92-32.80L74.92-32.80Q72.23-30.11 72.23-24.33L72.23-24.33L72.23-13.40L72.23-13.40Q72.23-8.78 74.96-5.93L74.96-5.93L74.96-5.93Q77.69-3.08 82.39-3.08L82.39-3.08L82.39-3.08Q87.16-3.08 89.74-5.89L89.74-5.89L89.74-5.89Q92.32-8.70 92.32-13.40L92.32-13.40L92.32-24.33" fill="#1d5167" stroke="none" stroke-width="none" transform="translate(-88.010009765625,20.973720092773437)" style="fill: rgb(122, 171, 146);"></path></g><g class="path" style="opacity: 1; transform-origin: 25.485px 1.33872px; animation: 2.7027s linear -0.356757s infinite normal forwards running fade-6113e80d-c587-4c50-9c56-066ffc3040e0;"><path d="M103.87 0L103.87-38.58L108.19-38.58L107.95-35.88L107.95-35.88Q111.57-39.27 117.42-39.27L117.42-39.27L117.42-39.27Q119.50-39.27 123.12-38.58L123.12-38.58L121.97-34.65L121.97-34.65Q119.50-35.42 116.81-35.42L116.81-35.42L116.81-35.42Q113.27-35.42 110.73-34.11L110.73-34.11L110.73-34.11Q108.19-32.80 108.19-30.18L108.19-30.18L108.19 0L103.87 0" fill="#1d5167" stroke="none" stroke-width="none" transform="translate(-88.010009765625,20.973720092773437)" style="fill: rgb(29, 81, 103);"></path></g><g class="path" style="opacity: 1; transform-origin: 66.835px 1.33872px; animation: 2.7027s linear 0s infinite normal forwards running fade-6113e80d-c587-4c50-9c56-066ffc3040e0;"><path d="M174.64 0L174.64-26.41L174.64-26.41Q174.64-31.03 172.21-33.19L172.21-33.19L172.21-33.19Q169.78-35.34 165.94-35.34L165.94-35.34L165.94-35.34Q162.93-35.34 159.24-34.03L159.24-34.03L156.39-32.65L156.39-32.65Q157.70-30.03 157.70-26.64L157.70-26.64L157.70 0L153.46 0L153.46-26.41L153.46-26.41Q153.46-31.11 151.04-33.23L151.04-33.23L151.04-33.23Q148.61-35.34 144.68-35.34L144.68-35.34L144.68-35.34Q142.30-35.34 139.75-34.61L139.75-34.61L139.75-34.61Q137.21-33.88 135.14-32.73L135.14-32.73L135.14 0L130.82 0L130.82-38.58L135.14-38.58L134.75-36.11L134.75-36.11Q139.83-39.12 145.15-39.12L145.15-39.12L145.15-39.12Q147.92-39.12 150.34-38.19L150.34-38.19L150.34-38.19Q152.77-37.27 154.46-35.50L154.46-35.50L154.46-35.50Q155.54-36.11 157.70-37.19L157.70-37.19L157.70-37.19Q162.24-39.27 166.47-39.27L166.47-39.27L166.47-39.27Q171.94-39.27 175.41-35.92L175.41-35.92L175.41-35.92Q178.87-32.57 178.87-26.64L178.87-26.64L178.87 0L174.64 0" fill="#1d5167" stroke="none" stroke-width="none" transform="translate(-88.010009765625,20.973720092773437)" style="fill: rgb(67, 127, 121);"></path></g></g>
</g>
</g>
<style id="fade-6113e80d-c587-4c50-9c56-066ffc3040e0" data-anikit="">@keyframes fade-6113e80d-c587-4c50-9c56-066ffc3040e0
{
  0% {
    animation-timing-function: cubic-bezier(0.2057,0.573,0.3723,0.9184);
    opacity: 1;
  }
  100% {
    opacity: 0;
  }
}</style></svg>