<?xml version="1.0" encoding="utf-8"?><svg xmlns="http://www.w3.org/2000/svg" xmlns:xlink="http://www.w3.org/1999/xlink" width="1366" height="663" preserveAspectRatio="xMidYMid" viewBox="0 0 1366 663" style="z-index:1;margin-right:-2px;display:block;background-repeat-y:initial;background-repeat-x:initial;background-color:rgb(241, 242, 243);animation-play-state:paused" ><g transform="translate(683,331.5) scale(1,1) translate(-683,-331.5)" style="transform:matrix(1, 0, 0, 1, 0, 0);animation-play-state:paused" ><g id="bk-0.34062579181091945" style="animation-play-state:paused" ><path d="M 613 265 L 521 253 L 595 334 Z" stroke="#8bdda5" fill="#8bdda5" style="animation-play-state:paused" ></path>
<path d="M 521 253 L 524 370 L 595 334 Z" stroke="#8adca5" fill="#8adca5" style="animation-play-state:paused" ></path>
<path d="M 613 265 L 642 180 L 521 253 Z" stroke="#8cdfa5" fill="#8cdfa5" style="animation-play-state:paused" ></path>
<path d="M 642 180 L 517 169 L 521 253 Z" stroke="#8ee1a4" fill="#8ee1a4" style="animation-play-state:paused" ></path>
<path d="M 517 169 L 423 256 L 521 253 Z" stroke="#8ee2a4" fill="#8ee2a4" style="animation-play-state:paused" ></path>
<path d="M 521 253 L 423 256 L 524 370 Z" stroke="#8cdea5" fill="#8cdea5" style="animation-play-state:paused" ></path>
<path d="M 595 334 L 703 243 L 613 265 Z" stroke="#8adba5" fill="#8adba5" style="animation-play-state:paused" ></path>
<path d="M 613 265 L 703 243 L 642 180 Z" stroke="#8cdea5" fill="#8cdea5" style="animation-play-state:paused" ></path>
<path d="M 524 370 L 596 446 L 595 334 Z" stroke="#86d5a3" fill="#86d5a3" style="animation-play-state:paused" ></path>
<path d="M 595 334 L 745 373 L 703 243 Z" stroke="#87d7a4" fill="#87d7a4" style="animation-play-state:paused" ></path>
<path d="M 423 256 L 418 381 L 524 370 Z" stroke="#8bdda5" fill="#8bdda5" style="animation-play-state:paused" ></path>
<path d="M 524 370 L 542 478 L 596 446 Z" stroke="#81cf9f" fill="#81cf9f" style="animation-play-state:paused" ></path>
<path d="M 422 477 L 542 478 L 524 370 Z" stroke="#85d4a2" fill="#85d4a2" style="animation-play-state:paused" ></path>
<path d="M 731 448 L 745 373 L 596 446 Z" stroke="#77c097" fill="#77c097" style="animation-play-state:paused" ></path>
<path d="M 596 446 L 745 373 L 595 334 Z" stroke="#80cd9e" fill="#80cd9e" style="animation-play-state:paused" ></path>
<path d="M 802 251 L 753 178 L 703 243 Z" stroke="#8adca5" fill="#8adca5" style="animation-play-state:paused" ></path>
<path d="M 703 243 L 753 178 L 642 180 Z" stroke="#8cdea5" fill="#8cdea5" style="animation-play-state:paused" ></path>
<path d="M 436 73 L 398 151 L 517 169 Z" stroke="#92e8a3" fill="#92e8a3" style="animation-play-state:paused" ></path>
<path d="M 517 169 L 398 151 L 423 256 Z" stroke="#90e5a4" fill="#90e5a4" style="animation-play-state:paused" ></path>
<path d="M 423 256 L 315 276 L 418 381 Z" stroke="#8de1a4" fill="#8de1a4" style="animation-play-state:paused" ></path>
<path d="M 312 456 L 422 477 L 418 381 Z" stroke="#8adba5" fill="#8adba5" style="animation-play-state:paused" ></path>
<path d="M 418 381 L 422 477 L 524 370 Z" stroke="#8adaa5" fill="#8adaa5" style="animation-play-state:paused" ></path>
<path d="M 615 56 L 536 60 L 642 180 Z" stroke="#91e6a4" fill="#91e6a4" style="animation-play-state:paused" ></path>
<path d="M 642 180 L 536 60 L 517 169 Z" stroke="#90e5a4" fill="#90e5a4" style="animation-play-state:paused" ></path>
<path d="M 598 551 L 731 448 L 596 446 Z" stroke="#74bc94" fill="#74bc94" style="animation-play-state:paused" ></path>
<path d="M 729 48 L 615 56 L 642 180 Z" stroke="#90e5a4" fill="#90e5a4" style="animation-play-state:paused" ></path>
<path d="M 398 151 L 315 276 L 423 256 Z" stroke="#90e4a4" fill="#90e4a4" style="animation-play-state:paused" ></path>
<path d="M 815 354 L 802 251 L 703 243 Z" stroke="#86d5a3" fill="#86d5a3" style="animation-play-state:paused" ></path>
<path d="M 753 178 L 729 48 L 642 180 Z" stroke="#8ee2a4" fill="#8ee2a4" style="animation-play-state:paused" ></path>
<path d="M 815 354 L 703 243 L 745 373 Z" stroke="#81ce9f" fill="#81ce9f" style="animation-play-state:paused" ></path>
<path d="M 816 457 L 815 354 L 745 373 Z" stroke="#74bb94" fill="#74bb94" style="animation-play-state:paused" ></path>
<path d="M 538 585 L 598 551 L 542 478 Z" stroke="#75be95" fill="#75be95" style="animation-play-state:paused" ></path>
<path d="M 542 478 L 598 551 L 596 446 Z" stroke="#78c298" fill="#78c298" style="animation-play-state:paused" ></path>
<path d="M 315 276 L 297 354 L 418 381 Z" stroke="#8de0a4" fill="#8de0a4" style="animation-play-state:paused" ></path>
<path d="M 442 -22 L 436 73 L 536 60 Z" stroke="#96eca2" fill="#96eca2" style="animation-play-state:paused" ></path>
<path d="M 536 60 L 436 73 L 517 169 Z" stroke="#93e8a3" fill="#93e8a3" style="animation-play-state:paused" ></path>
<path d="M 398 151 L 332 151 L 315 276 Z" stroke="#92e7a4" fill="#92e7a4" style="animation-play-state:paused" ></path>
<path d="M 333 56 L 332 151 L 398 151 Z" stroke="#94eaa3" fill="#94eaa3" style="animation-play-state:paused" ></path>
<path d="M 218 253 L 236 364 L 297 354 Z" stroke="#8fe4a4" fill="#8fe4a4" style="animation-play-state:paused" ></path>
<path d="M 803 142 L 729 48 L 753 178 Z" stroke="#8ee2a4" fill="#8ee2a4" style="animation-play-state:paused" ></path>
<path d="M 615 56 L 544 -33 L 536 60 Z" stroke="#95eba3" fill="#95eba3" style="animation-play-state:paused" ></path>
<path d="M 802 251 L 803 142 L 753 178 Z" stroke="#8bdda5" fill="#8bdda5" style="animation-play-state:paused" ></path>
<path d="M 440 577 L 542 478 L 422 477 Z" stroke="#80cd9e" fill="#80cd9e" style="animation-play-state:paused" ></path>
<path d="M 440 577 L 538 585 L 542 478 Z" stroke="#79c399" fill="#79c399" style="animation-play-state:paused" ></path>
<path d="M 297 354 L 312 456 L 418 381 Z" stroke="#8cdea5" fill="#8cdea5" style="animation-play-state:paused" ></path>
<path d="M 731 448 L 816 457 L 745 373 Z" stroke="#71b892" fill="#71b892" style="animation-play-state:paused" ></path>
<path d="M 815 354 L 913 261 L 802 251 Z" stroke="#80cd9e" fill="#80cd9e" style="animation-play-state:paused" ></path>
<path d="M 813 554 L 816 457 L 731 448 Z" stroke="#69aa89" fill="#69aa89" style="animation-play-state:paused" ></path>
<path d="M 751 578 L 731 448 L 598 551 Z" stroke="#6baf8c" fill="#6baf8c" style="animation-play-state:paused" ></path>
<path d="M 322 567 L 440 577 L 422 477 Z" stroke="#84d3a2" fill="#84d3a2" style="animation-play-state:paused" ></path>
<path d="M 436 73 L 333 56 L 398 151 Z" stroke="#95eba3" fill="#95eba3" style="animation-play-state:paused" ></path>
<path d="M 593 -65 L 544 -33 L 615 56 Z" stroke="#96eda2" fill="#96eda2" style="animation-play-state:paused" ></path>
<path d="M 436 73 L 442 -22 L 333 56 Z" stroke="#97eea2" fill="#97eea2" style="animation-play-state:paused" ></path>
<path d="M 725 640 L 751 578 L 598 551 Z" stroke="#66a687" fill="#66a687" style="animation-play-state:paused" ></path>
<path d="M 544 -33 L 442 -22 L 536 60 Z" stroke="#97eea2" fill="#97eea2" style="animation-play-state:paused" ></path>
<path d="M 218 253 L 297 354 L 315 276 Z" stroke="#90e4a4" fill="#90e4a4" style="animation-play-state:paused" ></path>
<path d="M 297 354 L 236 364 L 312 456 Z" stroke="#8de0a5" fill="#8de0a5" style="animation-play-state:paused" ></path>
<path d="M 312 456 L 322 567 L 422 477 Z" stroke="#8adaa5" fill="#8adaa5" style="animation-play-state:paused" ></path>
<path d="M 218 253 L 315 276 L 332 151 Z" stroke="#91e7a4" fill="#91e7a4" style="animation-play-state:paused" ></path>
<path d="M 803 142 L 813 46 L 729 48 Z" stroke="#8fe4a4" fill="#8fe4a4" style="animation-play-state:paused" ></path>
<path d="M 741 -45 L 593 -65 L 615 56 Z" stroke="#96eca3" fill="#96eca3" style="animation-play-state:paused" ></path>
<path d="M 922 56 L 813 46 L 803 142 Z" stroke="#8fe3a4" fill="#8fe3a4" style="animation-play-state:paused" ></path>
<path d="M 741 -45 L 615 56 L 729 48 Z" stroke="#93e9a3" fill="#93e9a3" style="animation-play-state:paused" ></path>
<path d="M 544 -33 L 434 -130 L 442 -22 Z" stroke="#9bf2a1" fill="#9bf2a1" style="animation-play-state:paused" ></path>
<path d="M 205 140 L 218 253 L 332 151 Z" stroke="#94eaa3" fill="#94eaa3" style="animation-play-state:paused" ></path>
<path d="M 440 577 L 492 642 L 538 585 Z" stroke="#77bf96" fill="#77bf96" style="animation-play-state:paused" ></path>
<path d="M 538 585 L 627 656 L 598 551 Z" stroke="#6eb38f" fill="#6eb38f" style="animation-play-state:paused" ></path>
<path d="M 405 653 L 492 642 L 440 577 Z" stroke="#79c399" fill="#79c399" style="animation-play-state:paused" ></path>
<path d="M 924 380 L 913 261 L 815 354 Z" stroke="#77c097" fill="#77c097" style="animation-play-state:paused" ></path>
<path d="M 802 251 L 935 177 L 803 142 Z" stroke="#8bdca5" fill="#8bdca5" style="animation-play-state:paused" ></path>
<path d="M 214 575 L 322 567 L 312 456 Z" stroke="#8adba5" fill="#8adba5" style="animation-play-state:paused" ></path>
<path d="M 813 46 L 741 -45 L 729 48 Z" stroke="#92e8a3" fill="#92e8a3" style="animation-play-state:paused" ></path>
<path d="M 492 642 L 627 656 L 538 585 Z" stroke="#6fb590" fill="#6fb590" style="animation-play-state:paused" ></path>
<path d="M 822 665 L 813 554 L 751 578 Z" stroke="#5e987e" fill="#5e987e" style="animation-play-state:paused" ></path>
<path d="M 751 578 L 813 554 L 731 448 Z" stroke="#66a687" fill="#66a687" style="animation-play-state:paused" ></path>
<path d="M 816 457 L 924 380 L 815 354 Z" stroke="#6fb490" fill="#6fb490" style="animation-play-state:paused" ></path>
<path d="M 929 468 L 924 380 L 816 457 Z" stroke="#68a989" fill="#68a989" style="animation-play-state:paused" ></path>
<path d="M 236 364 L 219 468 L 312 456 Z" stroke="#8ddfa5" fill="#8ddfa5" style="animation-play-state:paused" ></path>
<path d="M 112 339 L 219 468 L 236 364 Z" stroke="#8fe3a4" fill="#8fe3a4" style="animation-play-state:paused" ></path>
<path d="M 627 656 L 725 640 L 598 551 Z" stroke="#68a989" fill="#68a989" style="animation-play-state:paused" ></path>
<path d="M 319 668 L 405 653 L 322 567 Z" stroke="#83d0a0" fill="#83d0a0" style="animation-play-state:paused" ></path>
<path d="M 322 567 L 405 653 L 440 577 Z" stroke="#80cd9e" fill="#80cd9e" style="animation-play-state:paused" ></path>
<path d="M 631 751 L 706 755 L 627 656 Z" stroke="#62a083" fill="#62a083" style="animation-play-state:paused" ></path>
<path d="M 992 245 L 935 177 L 913 261 Z" stroke="#85d4a2" fill="#85d4a2" style="animation-play-state:paused" ></path>
<path d="M 913 261 L 935 177 L 802 251 Z" stroke="#88d8a5" fill="#88d8a5" style="animation-play-state:paused" ></path>
<path d="M 917 537 L 929 468 L 816 457 Z" stroke="#629f82" fill="#629f82" style="animation-play-state:paused" ></path>
<path d="M 223 49 L 205 140 L 333 56 Z" stroke="#98efa2" fill="#98efa2" style="animation-play-state:paused" ></path>
<path d="M 333 56 L 205 140 L 332 151 Z" stroke="#96eca3" fill="#96eca3" style="animation-play-state:paused" ></path>
<path d="M 218 253 L 112 339 L 236 364 Z" stroke="#91e5a4" fill="#91e5a4" style="animation-play-state:paused" ></path>
<path d="M 935 177 L 922 56 L 803 142 Z" stroke="#8cdfa5" fill="#8cdfa5" style="animation-play-state:paused" ></path>
<path d="M 813 46 L 817 -38 L 741 -45 Z" stroke="#93e9a3" fill="#93e9a3" style="animation-play-state:paused" ></path>
<path d="M 922 56 L 817 -38 L 813 46 Z" stroke="#91e6a4" fill="#91e6a4" style="animation-play-state:paused" ></path>
<path d="M 607 -144 L 529 -130 L 593 -65 Z" stroke="#dfdfdf" fill="#dfdfdf" style="animation-play-state:paused" ></path>
<path d="M 248 -35 L 223 49 L 333 56 Z" stroke="#9af1a1" fill="#9af1a1" style="animation-play-state:paused" ></path>
<path d="M 927 656 L 917 537 L 813 554 Z" stroke="#588f78" fill="#588f78" style="animation-play-state:paused" ></path>
<path d="M 813 554 L 917 537 L 816 457 Z" stroke="#619e82" fill="#619e82" style="animation-play-state:paused" ></path>
<path d="M 434 -130 L 319 -42 L 442 -22 Z" stroke="#dfdfdf" fill="#dfdfdf" style="animation-play-state:paused" ></path>
<path d="M 442 -22 L 319 -42 L 333 56 Z" stroke="#9af1a1" fill="#9af1a1" style="animation-play-state:paused" ></path>
<path d="M 607 -144 L 593 -65 L 720 -157 Z" stroke="#dedede" fill="#dedede" style="animation-play-state:paused" ></path>
<path d="M 593 -65 L 529 -130 L 544 -33 Z" stroke="#9af1a1" fill="#9af1a1" style="animation-play-state:paused" ></path>
<path d="M 125 475 L 214 575 L 219 468 Z" stroke="#8cdfa5" fill="#8cdfa5" style="animation-play-state:paused" ></path>
<path d="M 219 468 L 214 575 L 312 456 Z" stroke="#8bdda5" fill="#8bdda5" style="animation-play-state:paused" ></path>
<path d="M 214 575 L 319 668 L 322 567 Z" stroke="#89daa5" fill="#89daa5" style="animation-play-state:paused" ></path>
<path d="M 631 751 L 627 656 L 531 777 Z" stroke="#67a888" fill="#67a888" style="animation-play-state:paused" ></path>
<path d="M 529 -130 L 434 -130 L 544 -33 Z" stroke="#dfdfdf" fill="#dfdfdf" style="animation-play-state:paused" ></path>
<path d="M 1025 351 L 924 380 L 1018 446 Z" stroke="#67a988" fill="#67a988" style="animation-play-state:paused" ></path>
<path d="M 1025 351 L 913 261 L 924 380 Z" stroke="#73ba93" fill="#73ba93" style="animation-play-state:paused" ></path>
<path d="M 1025 351 L 992 245 L 913 261 Z" stroke="#79c398" fill="#79c398" style="animation-play-state:paused" ></path>
<path d="M 935 177 L 1023 159 L 922 56 Z" stroke="#8bdea5" fill="#8bdea5" style="animation-play-state:paused" ></path>
<path d="M 103 163 L 126 258 L 205 140 Z" stroke="#96eca2" fill="#96eca2" style="animation-play-state:paused" ></path>
<path d="M 205 140 L 126 258 L 218 253 Z" stroke="#94eaa3" fill="#94eaa3" style="animation-play-state:paused" ></path>
<path d="M 1018 446 L 924 380 L 929 468 Z" stroke="#64a385" fill="#64a385" style="animation-play-state:paused" ></path>
<path d="M 720 -157 L 593 -65 L 741 -45 Z" stroke="#99f0a2" fill="#99f0a2" style="animation-play-state:paused" ></path>
<path d="M 529 -130 L 323 -143 L 434 -130 Z" stroke="#e2e2e2" fill="#e2e2e2" style="animation-play-state:paused" ></path>
<path d="M 319 -42 L 248 -35 L 333 56 Z" stroke="#dedede" fill="#dedede" style="animation-play-state:paused" ></path>
<path d="M 111 77 L 103 163 L 205 140 Z" stroke="#98efa2" fill="#98efa2" style="animation-play-state:paused" ></path>
<path d="M 211 -150 L 248 -35 L 319 -42 Z" stroke="#e2e2e2" fill="#e2e2e2" style="animation-play-state:paused" ></path>
<path d="M 126 258 L 112 339 L 218 253 Z" stroke="#92e8a3" fill="#92e8a3" style="animation-play-state:paused" ></path>
<path d="M 725 640 L 822 665 L 751 578 Z" stroke="#5e997e" fill="#5e997e" style="animation-play-state:paused" ></path>
<path d="M 706 755 L 822 665 L 725 640 Z" stroke="#5c957c" fill="#5c957c" style="animation-play-state:paused" ></path>
<path d="M 706 755 L 725 640 L 627 656 Z" stroke="#619e82" fill="#619e82" style="animation-play-state:paused" ></path>
<path d="M 817 -38 L 720 -157 L 741 -45 Z" stroke="#97eea2" fill="#97eea2" style="animation-play-state:paused" ></path>
<path d="M 112 339 L 125 475 L 219 468 Z" stroke="#8fe3a4" fill="#8fe3a4" style="animation-play-state:paused" ></path>
<path d="M 214 575 L 189 647 L 319 668 Z" stroke="#8adba5" fill="#8adba5" style="animation-play-state:paused" ></path>
<path d="M 627 656 L 492 642 L 531 777 Z" stroke="#6cb08d" fill="#6cb08d" style="animation-play-state:paused" ></path>
<path d="M 1115 251 L 1023 159 L 992 245 Z" stroke="#82cfa0" fill="#82cfa0" style="animation-play-state:paused" ></path>
<path d="M 992 245 L 1023 159 L 935 177 Z" stroke="#89d9a5" fill="#89d9a5" style="animation-play-state:paused" ></path>
<path d="M 1022 556 L 929 468 L 917 537 Z" stroke="#5a9279" fill="#5a9279" style="animation-play-state:paused" ></path>
<path d="M 1022 556 L 1018 446 L 929 468 Z" stroke="#5b947b" fill="#5b947b" style="animation-play-state:paused" ></path>
<path d="M 531 777 L 492 642 L 419 756 Z" stroke="#71b892" fill="#71b892" style="animation-play-state:paused" ></path>
<path d="M 419 756 L 492 642 L 405 653 Z" stroke="#77c097" fill="#77c097" style="animation-play-state:paused" ></path>
<path d="M 111 77 L 205 140 L 223 49 Z" stroke="#99f0a2" fill="#99f0a2" style="animation-play-state:paused" ></path>
<path d="M 126 258 L 29 250 L 112 339 Z" stroke="#94eaa3" fill="#94eaa3" style="animation-play-state:paused" ></path>
<path d="M 922 56 L 922 -31 L 817 -38 Z" stroke="#92e7a3" fill="#92e7a3" style="animation-play-state:paused" ></path>
<path d="M 817 -38 L 831 -128 L 720 -157 Z" stroke="#99efa2" fill="#99efa2" style="animation-play-state:paused" ></path>
<path d="M 1022 58 L 922 -31 L 922 56 Z" stroke="#90e4a4" fill="#90e4a4" style="animation-play-state:paused" ></path>
<path d="M 607 -144 L 323 -143 L 529 -130 Z" stroke="#e1e1e1" fill="#e1e1e1" style="animation-play-state:paused" ></path>
<path d="M 434 -130 L 323 -143 L 319 -42 Z" stroke="#e2e2e2" fill="#e2e2e2" style="animation-play-state:paused" ></path>
<path d="M 332 765 L 419 756 L 405 653 Z" stroke="#7bc59a" fill="#7bc59a" style="animation-play-state:paused" ></path>
<path d="M 531 777 L 419 756 L 631 751 Z" stroke="#6cb08d" fill="#6cb08d" style="animation-play-state:paused" ></path>
<path d="M 138 -25 L 223 49 L 248 -35 Z" stroke="#e0e0e0" fill="#e0e0e0" style="animation-play-state:paused" ></path>
<path d="M 138 -25 L 111 77 L 223 49 Z" stroke="#dfdfdf" fill="#dfdfdf" style="animation-play-state:paused" ></path>
<path d="M 925 -143 L 831 -128 L 817 -38 Z" stroke="#97eea2" fill="#97eea2" style="animation-play-state:paused" ></path>
<path d="M 124 583 L 189 647 L 214 575 Z" stroke="#8bdda5" fill="#8bdda5" style="animation-play-state:paused" ></path>
<path d="M 319 668 L 332 765 L 405 653 Z" stroke="#7fcb9d" fill="#7fcb9d" style="animation-play-state:paused" ></path>
<path d="M 929 751 L 927 656 L 822 665 Z" stroke="#51826f" fill="#51826f" style="animation-play-state:paused" ></path>
<path d="M 822 665 L 927 656 L 813 554 Z" stroke="#578e77" fill="#578e77" style="animation-play-state:paused" ></path>
<path d="M 4 544 L 124 583 L 125 475 Z" stroke="#8ee2a4" fill="#8ee2a4" style="animation-play-state:paused" ></path>
<path d="M 125 475 L 124 583 L 214 575 Z" stroke="#8cdfa5" fill="#8cdfa5" style="animation-play-state:paused" ></path>
<path d="M 1117 149 L 1022 58 L 1023 159 Z" stroke="#8bdda5" fill="#8bdda5" style="animation-play-state:paused" ></path>
<path d="M 1023 159 L 1022 58 L 922 56 Z" stroke="#8de0a5" fill="#8de0a5" style="animation-play-state:paused" ></path>
<path d="M 1115 251 L 992 245 L 1025 351 Z" stroke="#76bf96" fill="#76bf96" style="animation-play-state:paused" ></path>
<path d="M 927 656 L 1022 556 L 917 537 Z" stroke="#548772" fill="#548772" style="animation-play-state:paused" ></path>
<path d="M 1132 367 L 1115 251 L 1025 351 Z" stroke="#6db18e" fill="#6db18e" style="animation-play-state:paused" ></path>
<path d="M 198 748 L 319 668 L 189 647 Z" stroke="#89daa5" fill="#89daa5" style="animation-play-state:paused" ></path>
<path d="M 198 748 L 332 765 L 319 668 Z" stroke="#85d4a2" fill="#85d4a2" style="animation-play-state:paused" ></path>
<path d="M 211 -150 L 138 -25 L 248 -35 Z" stroke="#e3e3e3" fill="#e3e3e3" style="animation-play-state:paused" ></path>
<path d="M 706 755 L 831 754 L 822 665 Z" stroke="#588e77" fill="#588e77" style="animation-play-state:paused" ></path>
<path d="M 927 656 L 1045 663 L 1022 556 Z" stroke="#4e7c6b" fill="#4e7c6b" style="animation-play-state:paused" ></path>
<path d="M 631 751 L 831 754 L 706 755 Z" stroke="#5c957c" fill="#5c957c" style="animation-play-state:paused" ></path>
<path d="M 419 756 L 831 754 L 631 751 Z" stroke="#64a284" fill="#64a284" style="animation-play-state:paused" ></path>
<path d="M 1132 367 L 1025 351 L 1095 432 Z" stroke="#64a385" fill="#64a385" style="animation-play-state:paused" ></path>
<path d="M 22 156 L 29 250 L 103 163 Z" stroke="#98efa2" fill="#98efa2" style="animation-play-state:paused" ></path>
<path d="M 103 163 L 29 250 L 126 258 Z" stroke="#96eca2" fill="#96eca2" style="animation-play-state:paused" ></path>
<path d="M 112 339 L -13 445 L 125 475 Z" stroke="#90e5a4" fill="#90e5a4" style="animation-play-state:paused" ></path>
<path d="M 22 156 L 103 163 L 21 46 Z" stroke="#9bf2a1" fill="#9bf2a1" style="animation-play-state:paused" ></path>
<path d="M 29 250 L 15 337 L 112 339 Z" stroke="#94eaa3" fill="#94eaa3" style="animation-play-state:paused" ></path>
<path d="M 1095 432 L 1025 351 L 1018 446 Z" stroke="#62a083" fill="#62a083" style="animation-play-state:paused" ></path>
<path d="M 1013 -32 L 925 -143 L 922 -31 Z" stroke="#94eba3" fill="#94eba3" style="animation-play-state:paused" ></path>
<path d="M 922 -31 L 925 -143 L 817 -38 Z" stroke="#95eca3" fill="#95eca3" style="animation-play-state:paused" ></path>
<path d="M 831 -128 L 925 -143 L 720 -157 Z" stroke="#9af1a1" fill="#9af1a1" style="animation-play-state:paused" ></path>
<path d="M 720 -157 L 1303 -152 L 607 -144 Z" stroke="#9af1a1" fill="#9af1a1" style="animation-play-state:paused" ></path>
<path d="M 1022 556 L 1095 432 L 1018 446 Z" stroke="#599179" fill="#599179" style="animation-play-state:paused" ></path>
<path d="M 1022 58 L 1013 -32 L 922 -31 Z" stroke="#91e6a4" fill="#91e6a4" style="animation-play-state:paused" ></path>
<path d="M 1109 35 L 1013 -32 L 1022 58 Z" stroke="#8fe4a4" fill="#8fe4a4" style="animation-play-state:paused" ></path>
<path d="M 21 46 L 103 163 L 111 77 Z" stroke="#dedede" fill="#dedede" style="animation-play-state:paused" ></path>
<path d="M 29 250 L -69 262 L 15 337 Z" stroke="#96eca2" fill="#96eca2" style="animation-play-state:paused" ></path>
<path d="M 1220 162 L 1117 149 L 1115 251 Z" stroke="#83d1a0" fill="#83d1a0" style="animation-play-state:paused" ></path>
<path d="M 1115 251 L 1117 149 L 1023 159 Z" stroke="#86d5a3" fill="#86d5a3" style="animation-play-state:paused" ></path>
<path d="M 12 657 L 121 659 L 124 583 Z" stroke="#8de0a5" fill="#8de0a5" style="animation-play-state:paused" ></path>
<path d="M 124 583 L 121 659 L 189 647 Z" stroke="#8cdea5" fill="#8cdea5" style="animation-play-state:paused" ></path>
<path d="M 121 659 L 198 748 L 189 647 Z" stroke="#8bdca5" fill="#8bdca5" style="animation-play-state:paused" ></path>
<path d="M 607 -144 L 211 -150 L 323 -143 Z" stroke="#e3e3e3" fill="#e3e3e3" style="animation-play-state:paused" ></path>
<path d="M 323 -143 L 211 -150 L 319 -42 Z" stroke="#e3e3e3" fill="#e3e3e3" style="animation-play-state:paused" ></path>
<path d="M 36 -37 L 21 46 L 111 77 Z" stroke="#e1e1e1" fill="#e1e1e1" style="animation-play-state:paused" ></path>
<path d="M -64 352 L -13 445 L 15 337 Z" stroke="#94e9a3" fill="#94e9a3" style="animation-play-state:paused" ></path>
<path d="M 15 337 L -13 445 L 112 339 Z" stroke="#92e8a3" fill="#92e8a3" style="animation-play-state:paused" ></path>
<path d="M 831 754 L 929 751 L 822 665 Z" stroke="#528470" fill="#528470" style="animation-play-state:paused" ></path>
<path d="M 1022 556 L 1137 557 L 1095 432 Z" stroke="#538671" fill="#538671" style="animation-play-state:paused" ></path>
<path d="M 36 -37 L 111 77 L 138 -25 Z" stroke="#e1e1e1" fill="#e1e1e1" style="animation-play-state:paused" ></path>
<path d="M 1117 149 L 1109 35 L 1022 58 Z" stroke="#8cdfa5" fill="#8cdfa5" style="animation-play-state:paused" ></path>
<path d="M 1013 -32 L 1032 -121 L 925 -143 Z" stroke="#96eca3" fill="#96eca3" style="animation-play-state:paused" ></path>
<path d="M 1009 738 L 1045 663 L 927 656 Z" stroke="#4a7666" fill="#4a7666" style="animation-play-state:paused" ></path>
<path d="M -13 445 L 4 544 L 125 475 Z" stroke="#90e4a4" fill="#90e4a4" style="animation-play-state:paused" ></path>
<path d="M 131 -134 L 36 -37 L 138 -25 Z" stroke="#e4e4e4" fill="#e4e4e4" style="animation-play-state:paused" ></path>
<path d="M 211 -150 L 131 -134 L 138 -25 Z" stroke="#e5e5e5" fill="#e5e5e5" style="animation-play-state:paused" ></path>
<path d="M 1107 639 L 1137 557 L 1022 556 Z" stroke="#4c7868" fill="#4c7868" style="animation-play-state:paused" ></path>
<path d="M 1202 453 L 1202 350 L 1132 367 Z" stroke="#5f9a7f" fill="#5f9a7f" style="animation-play-state:paused" ></path>
<path d="M 1132 367 L 1231 270 L 1115 251 Z" stroke="#6eb38f" fill="#6eb38f" style="animation-play-state:paused" ></path>
<path d="M 1125 -23 L 1032 -121 L 1013 -32 Z" stroke="#93e9a3" fill="#93e9a3" style="animation-play-state:paused" ></path>
<path d="M -87 147 L -69 262 L 22 156 Z" stroke="#9af1a1" fill="#9af1a1" style="animation-play-state:paused" ></path>
<path d="M 22 156 L -69 262 L 29 250 Z" stroke="#98efa2" fill="#98efa2" style="animation-play-state:paused" ></path>
<path d="M -13 445 L -96 464 L 4 544 Z" stroke="#92e7a4" fill="#92e7a4" style="animation-play-state:paused" ></path>
<path d="M -87 147 L 22 156 L 21 46 Z" stroke="#dfdfdf" fill="#dfdfdf" style="animation-play-state:paused" ></path>
<path d="M 929 751 L 1009 738 L 927 656 Z" stroke="#4c7868" fill="#4c7868" style="animation-play-state:paused" ></path>
<path d="M 1045 663 L 1107 639 L 1022 556 Z" stroke="#4b7666" fill="#4b7666" style="animation-play-state:paused" ></path>
<path d="M 53 772 L 124 780 L 121 659 Z" stroke="#8cdea5" fill="#8cdea5" style="animation-play-state:paused" ></path>
<path d="M 121 659 L 124 780 L 198 748 Z" stroke="#8bdca5" fill="#8bdca5" style="animation-play-state:paused" ></path>
<path d="M 198 748 L 124 780 L 332 765 Z" stroke="#89daa5" fill="#89daa5" style="animation-play-state:paused" ></path>
<path d="M 332 765 L 124 780 L 419 756 Z" stroke="#83d1a1" fill="#83d1a1" style="animation-play-state:paused" ></path>
<path d="M 419 756 L 1320 768 L 831 754 Z" stroke="#51836f" fill="#51836f" style="animation-play-state:paused" ></path>
<path d="M -69 262 L -64 352 L 15 337 Z" stroke="#96eca3" fill="#96eca3" style="animation-play-state:paused" ></path>
<path d="M 1209 52 L 1125 -23 L 1109 35 Z" stroke="#8ee2a4" fill="#8ee2a4" style="animation-play-state:paused" ></path>
<path d="M 1109 35 L 1125 -23 L 1013 -32 Z" stroke="#90e5a4" fill="#90e5a4" style="animation-play-state:paused" ></path>
<path d="M 1209 52 L 1109 35 L 1117 149 Z" stroke="#8cdea5" fill="#8cdea5" style="animation-play-state:paused" ></path>
<path d="M 1202 453 L 1132 367 L 1095 432 Z" stroke="#5c967c" fill="#5c967c" style="animation-play-state:paused" ></path>
<path d="M 1092 757 L 1107 639 L 1045 663 Z" stroke="#3e6b60" fill="#3e6b60" style="animation-play-state:paused" ></path>
<path d="M 1137 557 L 1202 453 L 1095 432 Z" stroke="#548772" fill="#548772" style="animation-play-state:paused" ></path>
<path d="M -84 642 L 12 657 L 4 544 Z" stroke="#8fe4a4" fill="#8fe4a4" style="animation-play-state:paused" ></path>
<path d="M 4 544 L 12 657 L 124 583 Z" stroke="#8ee2a4" fill="#8ee2a4" style="animation-play-state:paused" ></path>
<path d="M 1222 553 L 1202 453 L 1137 557 Z" stroke="#4d7b6a" fill="#4d7b6a" style="animation-play-state:paused" ></path>
<path d="M 1317 159 L 1231 270 L 1342 282 Z" stroke="#74bc94" fill="#74bc94" style="animation-play-state:paused" ></path>
<path d="M 1202 350 L 1231 270 L 1132 367 Z" stroke="#68a988" fill="#68a988" style="animation-play-state:paused" ></path>
<path d="M -102 34 L -87 147 L 21 46 Z" stroke="#e2e2e2" fill="#e2e2e2" style="animation-play-state:paused" ></path>
<path d="M -69 262 L -174 277 L -64 352 Z" stroke="#98efa2" fill="#98efa2" style="animation-play-state:paused" ></path>
<path d="M -169 372 L -96 464 L -64 352 Z" stroke="#95eca3" fill="#95eca3" style="animation-play-state:paused" ></path>
<path d="M -64 352 L -96 464 L -13 445 Z" stroke="#93e9a3" fill="#93e9a3" style="animation-play-state:paused" ></path>
<path d="M 1231 270 L 1220 162 L 1115 251 Z" stroke="#7ac499" fill="#7ac499" style="animation-play-state:paused" ></path>
<path d="M 1221 -37 L 1209 52 L 1321 58 Z" stroke="#8ee1a4" fill="#8ee1a4" style="animation-play-state:paused" ></path>
<path d="M 1220 162 L 1209 52 L 1117 149 Z" stroke="#8adba5" fill="#8adba5" style="animation-play-state:paused" ></path>
<path d="M 1125 -23 L 1118 -146 L 1032 -121 Z" stroke="#95eba3" fill="#95eba3" style="animation-play-state:paused" ></path>
<path d="M 1032 -121 L 1118 -146 L 925 -143 Z" stroke="#98eea2" fill="#98eea2" style="animation-play-state:paused" ></path>
<path d="M 925 -143 L 1118 -146 L 720 -157 Z" stroke="#99f0a2" fill="#99f0a2" style="animation-play-state:paused" ></path>
<path d="M 1228 -146 L 1118 -146 L 1125 -23 Z" stroke="#95eba3" fill="#95eba3" style="animation-play-state:paused" ></path>
<path d="M 929 751 L 1092 757 L 1009 738 Z" stroke="#446f62" fill="#446f62" style="animation-play-state:paused" ></path>
<path d="M 1009 738 L 1092 757 L 1045 663 Z" stroke="#3f6c61" fill="#3f6c61" style="animation-play-state:paused" ></path>
<path d="M 1107 639 L 1222 553 L 1137 557 Z" stroke="#477263" fill="#477263" style="animation-play-state:paused" ></path>
<path d="M -92 -38 L -102 34 L 36 -37 Z" stroke="#e5e5e5" fill="#e5e5e5" style="animation-play-state:paused" ></path>
<path d="M 36 -37 L -102 34 L 21 46 Z" stroke="#e3e3e3" fill="#e3e3e3" style="animation-play-state:paused" ></path>
<path d="M -179 447 L -103 540 L -96 464 Z" stroke="#94eaa3" fill="#94eaa3" style="animation-play-state:paused" ></path>
<path d="M -96 464 L -103 540 L 4 544 Z" stroke="#92e7a4" fill="#92e7a4" style="animation-play-state:paused" ></path>
<path d="M -174 277 L -69 262 L -87 147 Z" stroke="#9af1a1" fill="#9af1a1" style="animation-play-state:paused" ></path>
<path d="M 1218 658 L 1222 553 L 1107 639 Z" stroke="#3c695f" fill="#3c695f" style="animation-play-state:paused" ></path>
<path d="M 1342 282 L 1231 270 L 1352 386 Z" stroke="#66a687" fill="#66a687" style="animation-play-state:paused" ></path>
<path d="M -70 783 L 53 772 L 12 657 Z" stroke="#8ee1a4" fill="#8ee1a4" style="animation-play-state:paused" ></path>
<path d="M 12 657 L 53 772 L 121 659 Z" stroke="#8de0a5" fill="#8de0a5" style="animation-play-state:paused" ></path>
<path d="M 124 780 L 53 772 L 419 756 Z" stroke="#8adaa5" fill="#8adaa5" style="animation-play-state:paused" ></path>
<path d="M 131 -134 L 4 -148 L 36 -37 Z" stroke="#e7e7e7" fill="#e7e7e7" style="animation-play-state:paused" ></path>
<path d="M 211 -150 L 4 -148 L 131 -134 Z" stroke="#e7e7e7" fill="#e7e7e7" style="animation-play-state:paused" ></path>
<path d="M -207 144 L -174 277 L -87 147 Z" stroke="#e0e0e0" fill="#e0e0e0" style="animation-play-state:paused" ></path>
<path d="M -174 277 L -169 372 L -64 352 Z" stroke="#98eea2" fill="#98eea2" style="animation-play-state:paused" ></path>
<path d="M 1317 159 L 1209 52 L 1220 162 Z" stroke="#8adaa5" fill="#8adaa5" style="animation-play-state:paused" ></path>
<path d="M 1209 52 L 1221 -37 L 1125 -23 Z" stroke="#8fe4a4" fill="#8fe4a4" style="animation-play-state:paused" ></path>
<path d="M 4 -148 L -92 -38 L 36 -37 Z" stroke="#e7e7e7" fill="#e7e7e7" style="animation-play-state:paused" ></path>
<path d="M -190 66 L -207 144 L -87 147 Z" stroke="#e2e2e2" fill="#e2e2e2" style="animation-play-state:paused" ></path>
<path d="M -165 583 L -84 642 L -103 540 Z" stroke="#92e7a4" fill="#92e7a4" style="animation-play-state:paused" ></path>
<path d="M -103 540 L -84 642 L 4 544 Z" stroke="#91e6a4" fill="#91e6a4" style="animation-play-state:paused" ></path>
<path d="M -260 367 L -179 447 L -169 372 Z" stroke="#98eea2" fill="#98eea2" style="animation-play-state:paused" ></path>
<path d="M -169 372 L -179 447 L -96 464 Z" stroke="#95eca3" fill="#95eca3" style="animation-play-state:paused" ></path>
<path d="M 1227 765 L 1218 658 L 1107 639 Z" stroke="#2f5e5a" fill="#2f5e5a" style="animation-play-state:paused" ></path>
<path d="M 1231 270 L 1202 350 L 1352 386 Z" stroke="#64a385" fill="#64a385" style="animation-play-state:paused" ></path>
<path d="M 1231 270 L 1317 159 L 1220 162 Z" stroke="#7dc99c" fill="#7dc99c" style="animation-play-state:paused" ></path>
<path d="M 1202 350 L 1202 453 L 1352 386 Z" stroke="#5b937b" fill="#5b937b" style="animation-play-state:paused" ></path>
<path d="M -190 66 L -87 147 L -102 34 Z" stroke="#e3e3e3" fill="#e3e3e3" style="animation-play-state:paused" ></path>
<path d="M -174 277 L -260 367 L -169 372 Z" stroke="#99f0a2" fill="#99f0a2" style="animation-play-state:paused" ></path>
<path d="M 1352 386 L 1202 453 L 1318 475 Z" stroke="#538672" fill="#538672" style="animation-play-state:paused" ></path>
<path d="M -195 -42 L -190 66 L -102 34 Z" stroke="#e6e6e6" fill="#e6e6e6" style="animation-play-state:paused" ></path>
<path d="M 1318 475 L 1202 453 L 1222 553 Z" stroke="#4e7c6b" fill="#4e7c6b" style="animation-play-state:paused" ></path>
<path d="M -179 447 L -165 583 L -103 540 Z" stroke="#94eaa3" fill="#94eaa3" style="animation-play-state:paused" ></path>
<path d="M 1302 -54 L 1228 -146 L 1221 -37 Z" stroke="#93e8a3" fill="#93e8a3" style="animation-play-state:paused" ></path>
<path d="M 1221 -37 L 1228 -146 L 1125 -23 Z" stroke="#92e8a3" fill="#92e8a3" style="animation-play-state:paused" ></path>
<path d="M 1335 564 L 1318 475 L 1222 553 Z" stroke="#457063" fill="#457063" style="animation-play-state:paused" ></path>
<path d="M 1399 168 L 1321 58 L 1317 159 Z" stroke="#89d9a5" fill="#89d9a5" style="animation-play-state:paused" ></path>
<path d="M 1317 159 L 1321 58 L 1209 52 Z" stroke="#8bdca5" fill="#8bdca5" style="animation-play-state:paused" ></path>
<path d="M -165 778 L -70 783 L -84 642 Z" stroke="#90e5a4" fill="#90e5a4" style="animation-play-state:paused" ></path>
<path d="M -84 642 L -70 783 L 12 657 Z" stroke="#8fe3a4" fill="#8fe3a4" style="animation-play-state:paused" ></path>
<path d="M 929 751 L 1227 765 L 1092 757 Z" stroke="#37655e" fill="#37655e" style="animation-play-state:paused" ></path>
<path d="M 1092 757 L 1227 765 L 1107 639 Z" stroke="#31605b" fill="#31605b" style="animation-play-state:paused" ></path>
<path d="M 1218 658 L 1313 649 L 1222 553 Z" stroke="#32615c" fill="#32615c" style="animation-play-state:paused" ></path>
<path d="M 1320 768 L 1227 765 L 929 751 Z" stroke="#2b5a59" fill="#2b5a59" style="animation-play-state:paused" ></path>
<path d="M 4 -148 L -108 -157 L -92 -38 Z" stroke="#e9e9e9" fill="#e9e9e9" style="animation-play-state:paused" ></path>
<path d="M -92 -38 L -195 -42 L -102 34 Z" stroke="#e7e7e7" fill="#e7e7e7" style="animation-play-state:paused" ></path>
<path d="M 1320 768 L 1313 649 L 1218 658 Z" stroke="#215154" fill="#215154" style="animation-play-state:paused" ></path>
<path d="M 1321 58 L 1302 -54 L 1221 -37 Z" stroke="#8fe3a4" fill="#8fe3a4" style="animation-play-state:paused" ></path>
<path d="M 1313 649 L 1335 564 L 1222 553 Z" stroke="#35635d" fill="#35635d" style="animation-play-state:paused" ></path>
<path d="M 1426 375 L 1342 282 L 1352 386 Z" stroke="#5e9a7f" fill="#5e9a7f" style="animation-play-state:paused" ></path>
<path d="M 1426 375 L 1409 240 L 1342 282 Z" stroke="#66a687" fill="#66a687" style="animation-play-state:paused" ></path>
<path d="M -175 -122 L -195 -42 L -92 -38 Z" stroke="#e9e9e9" fill="#e9e9e9" style="animation-play-state:paused" ></path>
<path d="M -291 162 L -299 263 L -207 144 Z" stroke="#e2e2e2" fill="#e2e2e2" style="animation-play-state:paused" ></path>
<path d="M -277 551 L -182 657 L -165 583 Z" stroke="#94eaa3" fill="#94eaa3" style="animation-play-state:paused" ></path>
<path d="M -165 583 L -182 657 L -84 642 Z" stroke="#92e7a3" fill="#92e7a3" style="animation-play-state:paused" ></path>
<path d="M -277 551 L -165 583 L -179 447 Z" stroke="#95eba3" fill="#95eba3" style="animation-play-state:paused" ></path>
<path d="M -299 263 L -174 277 L -207 144 Z" stroke="#e0e0e0" fill="#e0e0e0" style="animation-play-state:paused" ></path>
<path d="M -299 263 L -260 367 L -174 277 Z" stroke="#dfdfdf" fill="#dfdfdf" style="animation-play-state:paused" ></path>
<path d="M -108 -157 L -175 -122 L -92 -38 Z" stroke="#eaeaea" fill="#eaeaea" style="animation-play-state:paused" ></path>
<path d="M 1426 375 L 1352 386 L 1411 460 Z" stroke="#558973" fill="#558973" style="animation-play-state:paused" ></path>
<path d="M 1342 282 L 1409 240 L 1317 159 Z" stroke="#74bc94" fill="#74bc94" style="animation-play-state:paused" ></path>
<path d="M 1321 58 L 1437 -10 L 1302 -54 Z" stroke="#8ee2a4" fill="#8ee2a4" style="animation-play-state:paused" ></path>
<path d="M -291 162 L -207 144 L -301 41 Z" stroke="#e5e5e5" fill="#e5e5e5" style="animation-play-state:paused" ></path>
<path d="M 1409 240 L 1399 168 L 1317 159 Z" stroke="#7bc69a" fill="#7bc69a" style="animation-play-state:paused" ></path>
<path d="M 1443 -122 L 1303 -152 L 1302 -54 Z" stroke="#94eaa3" fill="#94eaa3" style="animation-play-state:paused" ></path>
<path d="M 1302 -54 L 1303 -152 L 1228 -146 Z" stroke="#94eba3" fill="#94eba3" style="animation-play-state:paused" ></path>
<path d="M 1228 -146 L 1303 -152 L 1118 -146 Z" stroke="#97eda2" fill="#97eda2" style="animation-play-state:paused" ></path>
<path d="M 1118 -146 L 1303 -152 L 720 -157 Z" stroke="#98efa2" fill="#98efa2" style="animation-play-state:paused" ></path>
<path d="M -301 41 L -207 144 L -190 66 Z" stroke="#e5e5e5" fill="#e5e5e5" style="animation-play-state:paused" ></path>
<path d="M -277 -25 L -190 66 L -195 -42 Z" stroke="#e8e8e8" fill="#e8e8e8" style="animation-play-state:paused" ></path>
<path d="M -282 773 L -165 778 L -182 657 Z" stroke="#93e9a3" fill="#93e9a3" style="animation-play-state:paused" ></path>
<path d="M -182 657 L -165 778 L -84 642 Z" stroke="#91e7a4" fill="#91e7a4" style="animation-play-state:paused" ></path>
<path d="M -70 783 L -165 778 L 53 772 Z" stroke="#8fe3a4" fill="#8fe3a4" style="animation-play-state:paused" ></path>
<path d="M 1411 460 L 1352 386 L 1318 475 Z" stroke="#51826f" fill="#51826f" style="animation-play-state:paused" ></path>
<path d="M 1409 240 L 1516 156 L 1399 168 Z" stroke="#7ac499" fill="#7ac499" style="animation-play-state:paused" ></path>
<path d="M -299 263 L -305 443 L -260 367 Z" stroke="#dedede" fill="#dedede" style="animation-play-state:paused" ></path>
<path d="M -260 367 L -305 443 L -179 447 Z" stroke="#98efa2" fill="#98efa2" style="animation-play-state:paused" ></path>
<path d="M -301 41 L -305 443 L -299 263 Z" stroke="#e1e1e1" fill="#e1e1e1" style="animation-play-state:paused" ></path>
<path d="M 1419 555 L 1318 475 L 1335 564 Z" stroke="#3f6b61" fill="#3f6b61" style="animation-play-state:paused" ></path>
<path d="M 1419 555 L 1411 460 L 1318 475 Z" stroke="#487264" fill="#487264" style="animation-play-state:paused" ></path>
<path d="M -269 -146 L -277 -25 L -195 -42 Z" stroke="#ebebeb" fill="#ebebeb" style="animation-play-state:paused" ></path>
<path d="M 1413 678 L 1335 564 L 1313 649 Z" stroke="#255556" fill="#255556" style="animation-play-state:paused" ></path>
<path d="M 1413 678 L 1419 555 L 1335 564 Z" stroke="#295958" fill="#295958" style="animation-play-state:paused" ></path>
<path d="M 1411 460 L 1497 438 L 1426 375 Z" stroke="#51826f" fill="#51826f" style="animation-play-state:paused" ></path>
<path d="M -305 443 L -277 551 L -179 447 Z" stroke="#97eea2" fill="#97eea2" style="animation-play-state:paused" ></path>
<path d="M -277 -25 L -301 41 L -190 66 Z" stroke="#e8e8e8" fill="#e8e8e8" style="animation-play-state:paused" ></path>
<path d="M -291 162 L -301 41 L -299 263 Z" stroke="#e4e4e4" fill="#e4e4e4" style="animation-play-state:paused" ></path>
<path d="M 1516 156 L 1426 78 L 1399 168 Z" stroke="#85d4a2" fill="#85d4a2" style="animation-play-state:paused" ></path>
<path d="M 1399 168 L 1426 78 L 1321 58 Z" stroke="#8adba5" fill="#8adba5" style="animation-play-state:paused" ></path>
<path d="M 1227 765 L 1320 768 L 1218 658 Z" stroke="#205054" fill="#205054" style="animation-play-state:paused" ></path>
<path d="M 831 754 L 1320 768 L 929 751 Z" stroke="#406c61" fill="#406c61" style="animation-play-state:paused" ></path>
<path d="M 53 772 L 1320 768 L 419 756 Z" stroke="#66a687" fill="#66a687" style="animation-play-state:paused" ></path>
<path d="M -305 443 L -286 648 L -277 551 Z" stroke="#97eea2" fill="#97eea2" style="animation-play-state:paused" ></path>
<path d="M -277 551 L -286 648 L -182 657 Z" stroke="#95eba3" fill="#95eba3" style="animation-play-state:paused" ></path>
<path d="M 1503 51 L 1437 -10 L 1426 78 Z" stroke="#8cdea5" fill="#8cdea5" style="animation-play-state:paused" ></path>
<path d="M 1426 78 L 1437 -10 L 1321 58 Z" stroke="#8cdfa5" fill="#8cdfa5" style="animation-play-state:paused" ></path>
<path d="M 1320 768 L 1413 678 L 1313 649 Z" stroke="#194950" fill="#194950" style="animation-play-state:paused" ></path>
<path d="M 1529 565 L 1497 438 L 1411 460 Z" stroke="#457062" fill="#457062" style="animation-play-state:paused" ></path>
<path d="M -175 -122 L -269 -146 L -195 -42 Z" stroke="#ececec" fill="#ececec" style="animation-play-state:paused" ></path>
<path d="M -277 -25 L -269 -146 L -301 41 Z" stroke="#ebebeb" fill="#ebebeb" style="animation-play-state:paused" ></path>
<path d="M -108 -157 L -269 -146 L -175 -122 Z" stroke="#ededed" fill="#ededed" style="animation-play-state:paused" ></path>
<path d="M 1529 565 L 1411 460 L 1419 555 Z" stroke="#39675e" fill="#39675e" style="animation-play-state:paused" ></path>
<path d="M 1536 276 L 1516 156 L 1409 240 Z" stroke="#72b992" fill="#72b992" style="animation-play-state:paused" ></path>
<path d="M 1536 276 L 1409 240 L 1426 375 Z" stroke="#65a586" fill="#65a586" style="animation-play-state:paused" ></path>
<path d="M -286 648 L -282 773 L -182 657 Z" stroke="#94eaa3" fill="#94eaa3" style="animation-play-state:paused" ></path>
<path d="M 1537 -42 L 1443 -122 L 1437 -10 Z" stroke="#90e5a4" fill="#90e5a4" style="animation-play-state:paused" ></path>
<path d="M 1437 -10 L 1443 -122 L 1302 -54 Z" stroke="#91e6a4" fill="#91e6a4" style="animation-play-state:paused" ></path>
<path d="M 1596 345 L 1516 361 L 1640 469 Z" stroke="#548772" fill="#548772" style="animation-play-state:paused" ></path>
<path d="M 1497 438 L 1516 361 L 1426 375 Z" stroke="#558a74" fill="#558a74" style="animation-play-state:paused" ></path>
<path d="M 1320 768 L 1412 744 L 1413 678 Z" stroke="#12404b" fill="#12404b" style="animation-play-state:paused" ></path>
<path d="M 1413 678 L 1529 565 L 1419 555 Z" stroke="#245456" fill="#245456" style="animation-play-state:paused" ></path>
<path d="M 1516 361 L 1536 276 L 1426 375 Z" stroke="#5d987e" fill="#5d987e" style="animation-play-state:paused" ></path>
<path d="M 1632 64 L 1503 51 L 1516 156 Z" stroke="#8adaa5" fill="#8adaa5" style="animation-play-state:paused" ></path>
<path d="M 1516 156 L 1503 51 L 1426 78 Z" stroke="#8adaa5" fill="#8adaa5" style="animation-play-state:paused" ></path>
<path d="M 1540 662 L 1529 565 L 1413 678 Z" stroke="#19484f" fill="#19484f" style="animation-play-state:paused" ></path>
<path d="M 1516 361 L 1596 345 L 1536 276 Z" stroke="#5e9a7f" fill="#5e9a7f" style="animation-play-state:paused" ></path>
<path d="M 1624 -23 L 1537 -42 L 1503 51 Z" stroke="#8ee1a4" fill="#8ee1a4" style="animation-play-state:paused" ></path>
<path d="M 1503 51 L 1537 -42 L 1437 -10 Z" stroke="#8ee1a4" fill="#8ee1a4" style="animation-play-state:paused" ></path>
<path d="M 1640 469 L 1516 361 L 1497 438 Z" stroke="#4f7f6d" fill="#4f7f6d" style="animation-play-state:paused" ></path>
<path d="M 1536 276 L 1620 173 L 1516 156 Z" stroke="#75be95" fill="#75be95" style="animation-play-state:paused" ></path>
<path d="M 1515 761 L 1540 662 L 1413 678 Z" stroke="#0d3a47" fill="#0d3a47" style="animation-play-state:paused" ></path>
<path d="M 1529 565 L 1640 469 L 1497 438 Z" stroke="#406c61" fill="#406c61" style="animation-play-state:paused" ></path>
<path d="M 1613 760 L 1515 761 L 1412 744 Z" stroke="#072e3e" fill="#072e3e" style="animation-play-state:paused" ></path>
<path d="M 1412 744 L 1515 761 L 1413 678 Z" stroke="#0d3946" fill="#0d3946" style="animation-play-state:paused" ></path>
<path d="M 1595 -160 L 1522 -129 L 1537 -42 Z" stroke="#93e9a3" fill="#93e9a3" style="animation-play-state:paused" ></path>
<path d="M 1537 -42 L 1522 -129 L 1443 -122 Z" stroke="#92e8a3" fill="#92e8a3" style="animation-play-state:paused" ></path>
<path d="M 1443 -122 L 1522 -129 L 1303 -152 Z" stroke="#95eba3" fill="#95eba3" style="animation-play-state:paused" ></path>
<path d="M 1596 345 L 1626 266 L 1536 276 Z" stroke="#63a284" fill="#63a284" style="animation-play-state:paused" ></path>
<path d="M 1626 266 L 1620 173 L 1536 276 Z" stroke="#6eb38f" fill="#6eb38f" style="animation-play-state:paused" ></path>
<path d="M 1649 680 L 1607 555 L 1540 662 Z" stroke="#15444d" fill="#15444d" style="animation-play-state:paused" ></path>
<path d="M 1540 662 L 1607 555 L 1529 565 Z" stroke="#205053" fill="#205053" style="animation-play-state:paused" ></path>
<path d="M 1596 345 L 1640 469 L 1626 266 Z" stroke="#588f78" fill="#588f78" style="animation-play-state:paused" ></path>
<path d="M 1626 266 L 1640 469 L 1620 173 Z" stroke="#629f83" fill="#629f83" style="animation-play-state:paused" ></path>
<path d="M 1607 555 L 1640 469 L 1529 565 Z" stroke="#31605c" fill="#31605c" style="animation-play-state:paused" ></path>
<path d="M 1620 173 L 1632 64 L 1516 156 Z" stroke="#84d2a1" fill="#84d2a1" style="animation-play-state:paused" ></path>
<path d="M 1640 469 L 1632 64 L 1620 173 Z" stroke="#6eb38f" fill="#6eb38f" style="animation-play-state:paused" ></path>
<path d="M 1640 469 L 1624 -23 L 1632 64 Z" stroke="#7bc69a" fill="#7bc69a" style="animation-play-state:paused" ></path>
<path d="M 1632 64 L 1624 -23 L 1503 51 Z" stroke="#8cdfa5" fill="#8cdfa5" style="animation-play-state:paused" ></path>
<path d="M 1624 -23 L 1595 -160 L 1537 -42 Z" stroke="#91e6a4" fill="#91e6a4" style="animation-play-state:paused" ></path>
<path d="M 1522 -129 L 1595 -160 L 1303 -152 Z" stroke="#95eca3" fill="#95eca3" style="animation-play-state:paused" ></path>
<path d="M 1303 -152 L 1595 -160 L 607 -144 Z" stroke="#97eea2" fill="#97eea2" style="animation-play-state:paused" ></path>
<path d="M 607 -144 L 1595 -160 L 211 -150 Z" stroke="#9bf2a1" fill="#9bf2a1" style="animation-play-state:paused" ></path>
<path d="M 1607 555 L 1649 680 L 1640 469 Z" stroke="#255556" fill="#255556" style="animation-play-state:paused" ></path>
<path d="M 1613 760 L 1649 680 L 1540 662 Z" stroke="#093241" fill="#093241" style="animation-play-state:paused" ></path>
<path d="M 1320 768 L 1613 760 L 1412 744 Z" stroke="#0a3543" fill="#0a3543" style="animation-play-state:paused" ></path>
<path d="M 1515 761 L 1613 760 L 1540 662 Z" stroke="#072e3f" fill="#072e3f" style="animation-play-state:paused" ></path></g>
<style type="text/css" style="animation-play-state:paused" >#bk-0.34062579181091945 path { stroke-width: 1 }</style></g></svg>